<svg viewBox="0 0 100 100" xmlns="http://www.w3.org/2000/svg">
  <defs>
    <linearGradient id="blackKingGrad" x1="0%" y1="0%" x2="0%" y2="100%">
      <stop offset="0%" style="stop-color:#2a2a2a;stop-opacity:1" />
      <stop offset="100%" style="stop-color:#000000;stop-opacity:1" />
    </linearGradient>
  </defs>
  <!-- Cross top -->
  <rect x="48" y="10" width="4" height="10" fill="url(#blackKingGrad)" stroke="#1a1a1a" stroke-width="1.2"/>
  <rect x="44" y="14" width="12" height="3" fill="url(#blackKingGrad)" stroke="#1a1a1a" stroke-width="1.2"/>
  <!-- Crown base -->
  <circle cx="50" cy="20" r="6" fill="url(#blackKingGrad)" stroke="#1a1a1a" stroke-width="1.5"/>
  <!-- Crown points -->
  <path d="M 37 24 L 40 16 L 43 24 M 57 24 L 60 16 L 63 24" fill="none" stroke="url(#blackKingGrad)" stroke-width="2.5" stroke-linecap="round"/>
  <!-- Neck -->
  <path d="M 42 26 Q 42 30 44 33 L 56 33 Q 58 30 58 26" fill="url(#blackKingGrad)" stroke="#1a1a1a" stroke-width="1.5"/>
  <!-- Upper body -->
  <path d="M 44 33 Q 38 38 37 48 L 63 48 Q 62 38 56 33" fill="url(#blackKingGrad)" stroke="#1a1a1a" stroke-width="1.5" stroke-linejoin="round"/>
  <!-- Lower body -->
  <path d="M 37 48 L 63 48 L 60 66 L 40 66" fill="url(#blackKingGrad)" stroke="#1a1a1a" stroke-width="1.5" stroke-linejoin="round"/>
  <!-- Base -->
  <path d="M 40 66 L 60 66 L 58 78 L 42 78" fill="url(#blackKingGrad)" stroke="#1a1a1a" stroke-width="1.5" stroke-linejoin="round"/>
</svg>
